P3
35 25
255
63 72 204 63 72 204 63 72 204 63 72 204 63 72 204 237 28 36 237 28 36 237 28 36 237 28 36 237 28 36 163 73 164 163 73 164 163 73 164 163 73 164 163 73 164 34 177 76 34 177 76 34 177 76 34 177 76 34 177 76 153 217 234 153 217 234 153 217 234 153 217 234 153 217 234 255 201 14 255 201 14 255 201 14 255 201 14 255 201 14 127 127 127 127 127 127 127 127 127 127 127 127 127 127 127 
63 72 204 63 72 204 63 72 204 63 72 204 63 72 204 237 28 36 237 28 36 237 28 36 237 28 36 237 28 36 163 73 164 163 73 164 163 73 164 163 73 164 163 73 164 34 177 76 34 177 76 34 177 76 34 177 76 34 177 76 153 217 234 153 217 234 153 217 234 153 217 234 153 217 234 255 201 14 255 201 14 255 201 14 255 201 14 255 201 14 127 127 127 127 127 127 127 127 127 127 127 127 127 127 127 
63 72 204 63 72 204 63 72 204 63 72 204 63 72 204 237 28 36 237 28 36 237 28 36 237 28 36 237 28 36 163 73 164 163 73 164 163 73 164 163 73 164 163 73 164 34 177 76 34 177 76 34 177 76 34 177 76 34 177 76 153 217 234 153 217 234 153 217 234 153 217 234 153 217 234 255 201 14 255 201 14 255 201 14 255 201 14 255 201 14 127 127 127 127 127 127 127 127 127 127 127 127 127 127 127 
63 72 204 63 72 204 63 72 204 63 72 204 63 72 204 237 28 36 237 28 36 237 28 36 237 28 36 237 28 36 163 73 164 163 73 164 163 73 164 163 73 164 163 73 164 34 177 76 34 177 76 34 177 76 34 177 76 34 177 76 153 217 234 153 217 234 153 217 234 153 217 234 153 217 234 255 201 14 255 201 14 255 201 14 255 201 14 255 201 14 127 127 127 127 127 127 127 127 127 127 127 127 127 127 127 
63 72 204 63 72 204 63 72 204 63 72 204 63 72 204 237 28 36 237 28 36 237 28 36 237 28 36 237 28 36 163 73 164 163 73 164 163 73 164 163 73 164 163 73 164 34 177 76 34 177 76 34 177 76 34 177 76 34 177 76 153 217 234 153 217 234 153 217 234 153 217 234 153 217 234 255 201 14 255 201 14 255 201 14 255 201 14 255 201 14 127 127 127 127 127 127 127 127 127 127 127 127 127 127 127 
63 72 204 63 72 204 63 72 204 63 72 204 63 72 204 237 28 36 237 28 36 237 28 36 237 28 36 237 28 36 163 73 164 163 73 164 163 73 164 163 73 164 163 73 164 34 177 76 34 177 76 34 177 76 34 177 76 34 177 76 153 217 234 153 217 234 153 217 234 153 217 234 153 217 234 255 201 14 255 201 14 255 201 14 255 201 14 255 201 14 127 127 127 127 127 127 127 127 127 127 127 127 127 127 127 
63 72 204 63 72 204 63 72 204 63 72 204 63 72 204 237 28 36 237 28 36 237 28 36 237 28 36 237 28 36 163 73 164 163 73 164 163 73 164 163 73 164 163 73 164 34 177 76 34 177 76 34 177 76 34 177 76 34 177 76 153 217 234 153 217 234 153 217 234 153 217 234 153 217 234 255 201 14 255 201 14 255 201 14 255 201 14 255 201 14 127 127 127 127 127 127 127 127 127 127 127 127 127 127 127 
63 72 204 63 72 204 63 72 204 63 72 204 63 72 204 237 28 36 237 28 36 237 28 36 237 28 36 237 28 36 163 73 164 163 73 164 163 73 164 163 73 164 163 73 164 34 177 76 34 177 76 34 177 76 34 177 76 34 177 76 153 217 234 153 217 234 153 217 234 153 217 234 153 217 234 255 201 14 255 201 14 255 201 14 255 201 14 255 201 14 127 127 127 127 127 127 127 127 127 127 127 127 127 127 127 
63 72 204 63 72 204 63 72 204 63 72 204 63 72 204 237 28 36 237 28 36 237 28 36 237 28 36 237 28 36 163 73 164 163 73 164 163 73 164 163 73 164 163 73 164 34 177 76 34 177 76 34 177 76 34 177 76 34 177 76 153 217 234 153 217 234 153 217 234 153 217 234 153 217 234 255 201 14 255 201 14 255 201 14 255 201 14 255 201 14 127 127 127 127 127 127 127 127 127 127 127 127 127 127 127 
63 72 204 63 72 204 63 72 204 63 72 204 63 72 204 237 28 36 237 28 36 237 28 36 237 28 36 237 28 36 163 73 164 163 73 164 163 73 164 163 73 164 163 73 164 34 177 76 34 177 76 34 177 76 34 177 76 34 177 76 153 217 234 153 217 234 153 217 234 153 217 234 153 217 234 255 201 14 255 201 14 255 201 14 255 201 14 255 201 14 127 127 127 127 127 127 127 127 127 127 127 127 127 127 127 
63 72 204 63 72 204 63 72 204 63 72 204 63 72 204 237 28 36 237 28 36 237 28 36 237 28 36 237 28 36 163 73 164 163 73 164 163 73 164 163 73 164 163 73 164 34 177 76 34 177 76 34 177 76 34 177 76 34 177 76 153 217 234 153 217 234 153 217 234 153 217 234 153 217 234 255 201 14 255 201 14 255 201 14 255 201 14 255 201 14 127 127 127 127 127 127 127 127 127 127 127 127 127 127 127 
63 72 204 63 72 204 63 72 204 63 72 204 63 72 204 237 28 36 237 28 36 237 28 36 237 28 36 237 28 36 163 73 164 163 73 164 163 73 164 163 73 164 163 73 164 34 177 76 34 177 76 34 177 76 34 177 76 34 177 76 153 217 234 153 217 234 153 217 234 153 217 234 153 217 234 255 201 14 255 201 14 255 201 14 255 201 14 255 201 14 127 127 127 127 127 127 127 127 127 127 127 127 127 127 127 
63 72 204 63 72 204 63 72 204 63 72 204 63 72 204 237 28 36 237 28 36 237 28 36 237 28 36 237 28 36 163 73 164 163 73 164 163 73 164 163 73 164 163 73 164 34 177 76 34 177 76 34 177 76 34 177 76 34 177 76 153 217 234 153 217 234 153 217 234 153 217 234 153 217 234 255 201 14 255 201 14 255 201 14 255 201 14 255 201 14 127 127 127 127 127 127 127 127 127 127 127 127 127 127 127 
63 72 204 63 72 204 63 72 204 63 72 204 63 72 204 237 28 36 237 28 36 237 28 36 237 28 36 237 28 36 163 73 164 163 73 164 163 73 164 163 73 164 163 73 164 34 177 76 34 177 76 34 177 76 34 177 76 34 177 76 153 217 234 153 217 234 153 217 234 153 217 234 153 217 234 255 201 14 255 201 14 255 201 14 255 201 14 255 201 14 127 127 127 127 127 127 127 127 127 127 127 127 127 127 127 
63 72 204 63 72 204 63 72 204 63 72 204 63 72 204 237 28 36 237 28 36 237 28 36 237 28 36 237 28 36 163 73 164 163 73 164 163 73 164 163 73 164 163 73 164 34 177 76 34 177 76 34 177 76 34 177 76 34 177 76 153 217 234 153 217 234 153 217 234 153 217 234 153 217 234 255 201 14 255 201 14 255 201 14 255 201 14 255 201 14 127 127 127 127 127 127 127 127 127 127 127 127 127 127 127 
63 72 204 63 72 204 63 72 204 63 72 204 63 72 204 237 28 36 237 28 36 237 28 36 237 28 36 237 28 36 163 73 164 163 73 164 163 73 164 163 73 164 163 73 164 34 177 76 34 177 76 34 177 76 34 177 76 34 177 76 153 217 234 153 217 234 153 217 234 153 217 234 153 217 234 255 201 14 255 201 14 255 201 14 255 201 14 255 201 14 127 127 127 127 127 127 127 127 127 127 127 127 127 127 127 
63 72 204 63 72 204 63 72 204 63 72 204 63 72 204 237 28 36 237 28 36 237 28 36 237 28 36 237 28 36 163 73 164 163 73 164 163 73 164 163 73 164 163 73 164 34 177 76 34 177 76 34 177 76 34 177 76 34 177 76 153 217 234 153 217 234 153 217 234 153 217 234 153 217 234 255 201 14 255 201 14 255 201 14 255 201 14 255 201 14 127 127 127 127 127 127 127 127 127 127 127 127 127 127 127 
63 72 204 63 72 204 63 72 204 63 72 204 63 72 204 237 28 36 237 28 36 237 28 36 237 28 36 237 28 36 163 73 164 163 73 164 163 73 164 163 73 164 163 73 164 34 177 76 34 177 76 34 177 76 34 177 76 34 177 76 153 217 234 153 217 234 153 217 234 153 217 234 153 217 234 255 201 14 255 201 14 255 201 14 255 201 14 255 201 14 127 127 127 127 127 127 127 127 127 127 127 127 127 127 127 
63 72 204 63 72 204 63 72 204 63 72 204 63 72 204 237 28 36 237 28 36 237 28 36 237 28 36 237 28 36 163 73 164 163 73 164 163 73 164 163 73 164 163 73 164 34 177 76 34 177 76 34 177 76 34 177 76 34 177 76 153 217 234 153 217 234 153 217 234 153 217 234 153 217 234 255 201 14 255 201 14 255 201 14 255 201 14 255 201 14 127 127 127 127 127 127 127 127 127 127 127 127 127 127 127 
63 72 204 63 72 204 63 72 204 63 72 204 63 72 204 237 28 36 237 28 36 237 28 36 237 28 36 237 28 36 163 73 164 163 73 164 163 73 164 163 73 164 163 73 164 34 177 76 34 177 76 34 177 76 34 177 76 34 177 76 153 217 234 153 217 234 153 217 234 153 217 234 153 217 234 255 201 14 255 201 14 255 201 14 255 201 14 255 201 14 127 127 127 127 127 127 127 127 127 127 127 127 127 127 127 
63 72 204 63 72 204 63 72 204 63 72 204 63 72 204 237 28 36 237 28 36 237 28 36 237 28 36 237 28 36 163 73 164 163 73 164 163 73 164 163 73 164 163 73 164 34 177 76 34 177 76 34 177 76 34 177 76 34 177 76 153 217 234 153 217 234 153 217 234 153 217 234 153 217 234 255 201 14 255 201 14 255 201 14 255 201 14 255 201 14 127 127 127 127 127 127 127 127 127 127 127 127 127 127 127 
63 72 204 63 72 204 63 72 204 63 72 204 63 72 204 237 28 36 237 28 36 237 28 36 237 28 36 237 28 36 163 73 164 163 73 164 163 73 164 163 73 164 163 73 164 34 177 76 34 177 76 34 177 76 34 177 76 34 177 76 153 217 234 153 217 234 153 217 234 153 217 234 153 217 234 255 201 14 255 201 14 255 201 14 255 201 14 255 201 14 127 127 127 127 127 127 127 127 127 127 127 127 127 127 127 
127 127 127 127 127 127 127 127 127 127 127 127 127 127 127 0 0 0 0 0 0 0 0 0 0 0 0 0 0 0 153 217 234 153 217 234 153 217 234 153 217 234 153 217 234 0 0 0 0 0 0 0 0 0 0 0 0 0 0 0 163 73 164 163 73 164 163 73 164 163 73 164 163 73 164 0 0 0 0 0 0 0 0 0 0 0 0 0 0 0 63 72 204 63 72 204 63 72 204 63 72 204 63 72 204 
127 127 127 127 127 127 127 127 127 127 127 127 127 127 127 0 0 0 0 0 0 0 0 0 0 0 0 0 0 0 153 217 234 153 217 234 153 217 234 153 217 234 153 217 234 0 0 0 0 0 0 0 0 0 0 0 0 0 0 0 163 73 164 163 73 164 163 73 164 163 73 164 163 73 164 0 0 0 0 0 0 0 0 0 0 0 0 0 0 0 63 72 204 63 72 204 63 72 204 63 72 204 63 72 204 
127 127 127 127 127 127 127 127 127 127 127 127 127 127 127 0 0 0 0 0 0 0 0 0 0 0 0 0 0 0 153 217 234 153 217 234 153 217 234 153 217 234 153 217 234 0 0 0 0 0 0 0 0 0 0 0 0 0 0 0 163 73 164 163 73 164 163 73 164 163 73 164 163 73 164 0 0 0 0 0 0 0 0 0 0 0 0 0 0 0 63 72 204 63 72 204 63 72 204 63 72 204 63 72 204 
