P3
25 25
255
255 255 255 255 255 255 255 255 255 255 255 255 255 255 255 255 255 255 255 255 255 255 255 255 255 255 255 255 255 255 255 255 255 255 255 255 255 255 255 255 255 255 255 255 255 255 255 255 255 255 255 255 255 255 255 255 255 255 255 255 255 255 255 255 255 255 255 255 255 255 255 255 255 255 255 
255 255 255 244 244 244 255 255 255 255 255 255 255 255 255 255 255 255 255 255 255 255 255 255 255 255 255 255 255 255 255 255 255 255 255 255 255 255 255 255 255 255 255 255 255 255 255 255 255 255 255 255 255 255 255 255 255 255 255 255 255 255 255 255 255 255 255 255 255 255 255 255 255 255 255 
255 255 255 255 255 255 255 255 255 255 255 255 255 255 255 255 255 255 255 255 255 255 255 255 255 255 255 255 255 255 255 255 255 255 255 255 255 255 255 255 255 255 255 255 255 255 255 255 255 255 255 255 255 255 255 255 255 255 255 255 255 255 255 255 255 255 255 255 255 255 255 255 255 255 255 
255 255 255 255 255 255 255 255 255 255 255 255 255 255 255 255 255 255 255 255 255 255 255 255 183 183 183 32 32 32 32 32 32 151 151 151 255 255 255 255 255 255 255 255 255 255 255 255 255 255 255 255 255 255 255 255 255 255 255 255 255 255 255 255 255 255 255 255 255 255 255 255 255 255 255 
255 255 255 255 255 255 255 255 255 255 255 255 255 255 255 183 183 183 32 32 32 32 32 32 16 16 16 0 0 0 0 0 0 0 0 0 0 0 0 32 32 32 159 159 159 255 255 255 255 255 255 255 255 255 255 255 255 255 255 255 255 255 255 255 255 255 255 255 255 251 251 251 255 255 255 
255 255 255 255 255 255 255 255 255 255 255 255 183 183 183 16 16 16 0 0 0 0 0 0 0 0 0 0 0 0 0 0 0 0 0 0 0 0 0 0 0 0 0 0 0 0 0 0 0 0 0 32 32 32 159 159 159 255 255 255 255 255 255 255 255 255 255 255 255 255 255 255 255 255 255 
255 255 255 255 255 255 255 255 255 183 183 183 16 16 16 0 0 0 0 0 0 0 0 0 0 0 0 0 0 0 56 56 56 0 0 0 0 0 0 0 0 0 0 0 0 0 0 0 0 0 0 0 0 0 8 8 8 159 159 159 255 255 255 255 255 255 255 255 255 255 255 255 255 255 255 
255 255 255 255 255 255 183 183 183 16 16 16 0 0 0 0 0 0 72 68 0 236 225 13 255 242 0 255 242 0 255 242 0 255 242 0 240 229 17 96 91 0 0 0 0 0 0 0 0 0 0 0 0 0 0 0 0 8 8 8 159 159 159 255 255 255 255 255 255 255 255 255 255 255 255 
255 255 255 255 255 255 24 24 24 0 0 0 0 0 0 72 68 0 246 234 7 183 174 0 64 61 0 159 151 0 255 242 0 255 242 0 255 242 0 255 242 0 183 174 0 64 61 0 150 143 11 96 91 0 0 0 0 0 0 0 8 8 8 255 255 255 255 255 255 255 255 255 255 255 255 
255 255 255 255 255 255 0 0 0 0 0 0 0 0 0 241 229 10 255 242 0 24 23 0 0 0 0 8 8 0 159 151 0 255 242 0 255 242 0 255 242 0 24 23 0 0 0 0 8 8 0 255 242 0 223 212 0 96 91 0 0 0 0 159 159 159 255 255 255 255 255 255 255 255 255 
255 255 255 255 255 255 0 0 0 0 0 0 0 0 0 255 242 0 255 242 0 8 8 0 0 0 0 0 0 0 8 8 0 255 242 0 255 242 0 255 242 0 0 0 0 0 0 0 0 0 0 255 242 0 255 242 0 247 234 0 96 91 0 8 8 8 255 255 255 255 255 255 255 255 255 
255 255 255 255 255 255 0 0 0 0 0 0 0 0 0 255 242 0 255 242 0 135 128 0 0 0 0 0 0 0 0 0 0 255 242 0 255 242 8 255 243 16 8 8 0 0 0 0 0 0 0 255 242 0 255 242 0 255 242 0 247 234 0 0 0 0 135 135 135 255 255 255 255 255 255 
255 255 255 255 255 255 0 0 0 0 0 0 104 98 0 255 242 0 255 242 0 255 242 0 8 8 0 0 0 0 0 0 0 255 242 0 255 242 0 255 242 0 135 128 0 0 0 0 104 99 0 255 242 0 255 242 0 255 242 0 255 242 0 0 0 0 8 8 8 255 255 255 255 255 255 
255 255 255 255 255 255 0 0 0 0 0 0 231 219 0 255 242 0 255 242 0 255 242 0 135 128 0 0 0 0 104 99 0 255 242 0 255 242 0 255 242 0 255 242 0 255 245 56 255 242 0 255 242 0 255 242 0 255 242 0 255 242 0 0 0 0 0 0 0 255 255 255 255 255 255 
255 255 255 255 255 255 0 0 0 0 0 0 247 234 0 255 242 0 255 242 0 255 242 0 255 247 96 255 242 0 255 242 0 255 242 0 255 242 0 255 242 0 255 242 0 255 249 120 255 242 0 255 242 0 255 242 0 255 242 0 255 242 0 0 0 0 0 0 0 255 255 255 255 255 255 
255 255 255 255 255 255 0 0 0 0 0 0 120 113 0 255 242 0 255 242 0 255 242 0 183 175 23 64 61 0 151 143 0 255 242 0 255 242 0 255 242 0 255 242 0 255 242 0 183 174 0 64 61 0 159 151 0 255 242 0 255 242 0 0 0 0 0 0 0 255 255 255 255 255 255 
255 255 255 255 255 255 8 8 8 0 0 0 0 0 0 247 234 0 255 242 0 255 242 0 32 30 0 0 0 0 0 0 0 32 30 0 159 151 0 255 242 0 183 174 0 32 30 0 0 0 0 0 0 0 8 8 0 255 242 0 255 242 0 0 0 0 0 0 0 255 255 255 255 255 255 
255 255 255 255 255 255 135 135 135 0 0 0 0 0 0 120 113 0 255 242 0 255 242 0 112 106 0 0 0 0 0 0 0 0 0 0 0 0 0 0 0 0 0 0 0 0 0 0 0 0 0 0 0 0 0 0 0 255 242 0 151 144 0 0 0 0 0 0 0 255 255 255 255 255 255 
255 255 255 255 255 255 255 255 255 8 8 8 0 0 0 0 0 0 8 8 8 204 197 84 247 234 0 96 91 0 0 0 0 0 0 0 0 0 0 0 0 0 0 0 0 0 0 0 0 0 0 0 0 0 104 99 0 255 242 0 0 0 0 0 0 0 104 104 104 255 255 255 255 255 255 
255 255 255 255 255 255 255 255 255 135 135 135 0 0 0 0 0 0 0 0 0 0 0 0 120 113 0 255 242 0 135 128 0 0 0 0 0 0 0 0 0 0 0 0 0 0 0 0 104 99 0 255 242 0 255 242 0 151 144 0 0 0 0 104 104 104 255 255 255 255 255 255 255 255 255 
255 255 255 255 255 255 255 255 255 255 255 255 135 135 135 0 0 0 0 0 0 0 0 0 0 0 0 0 0 0 120 113 0 255 242 0 255 242 0 255 242 0 255 242 0 255 242 0 255 242 0 151 144 0 0 0 0 0 0 0 0 0 0 255 255 255 255 255 255 255 255 255 255 255 255 
255 255 255 255 255 255 255 255 255 255 255 255 255 255 255 135 135 135 0 0 0 0 0 0 0 0 0 0 0 0 0 0 0 0 0 0 0 0 0 0 0 0 0 0 0 0 0 0 0 0 0 0 0 0 0 0 0 0 0 0 104 104 104 255 255 255 255 255 255 255 255 255 255 255 255 
255 255 255 255 255 255 255 255 255 255 255 255 255 255 255 255 255 255 255 255 255 255 255 255 135 135 135 0 0 0 0 0 0 0 0 0 0 0 0 0 0 0 0 0 0 0 0 0 0 0 0 0 0 0 104 104 104 255 255 255 255 255 255 255 255 255 255 255 255 255 255 255 255 255 255 
255 255 255 255 255 255 255 255 255 255 255 255 255 255 255 255 255 255 255 255 255 255 255 255 255 255 255 255 255 255 255 255 255 255 255 255 255 255 255 255 255 255 255 255 255 255 255 255 255 255 255 255 255 255 255 255 255 255 255 255 255 255 255 255 255 255 255 255 255 255 255 255 255 255 255 
255 255 255 255 255 255 255 255 255 255 255 255 255 255 255 255 255 255 255 255 255 255 255 255 255 255 255 255 255 255 255 255 255 255 255 255 255 255 255 255 255 255 255 255 255 255 255 255 255 255 255 255 255 255 255 255 255 255 255 255 255 255 255 255 255 255 255 255 255 255 255 255 255 255 255 
